<svg width="20" height="20" viewBox="0 0 20 20" fill="none" xmlns="http://www.w3.org/2000/svg">
<g clip-path="url(#clip0_355_7)">
<path d="M10 0C4.45455 0 0 4.45455 0 10C0 15.5455 4.45455 20 10 20C15.5455 20 20 15.5455 20 10C20 4.45455 15.5455 0 10 0ZM15.4545 10.4545C15.4545 10.7273 15.2727 10.9091 15 10.9091H11.1364C11 10.9091 10.9091 11 10.9091 11.1364V15C10.9091 15.2727 10.7273 15.4545 10.4545 15.4545H9.54545C9.27273 15.4545 9.09091 15.2727 9.09091 15V11.1364C9.09091 11 9 10.9091 8.86364 10.9091H5C4.72727 10.9091 4.54545 10.7273 4.54545 10.4545V9.54545C4.54545 9.27273 4.72727 9.09091 5 9.09091H8.86364C9 9.09091 9.09091 9 9.09091 8.86364V5C9.09091 4.72727 9.27273 4.54545 9.54545 4.54545H10.4545C10.7273 4.54545 10.9091 4.72727 10.9091 5V8.86364C10.9091 9 11 9.09091 11.1364 9.09091H15C15.2727 9.09091 15.4545 9.27273 15.4545 9.54545V10.4545Z" fill="white"/>
</g>
<defs>
<clipPath id="clip0_355_7">
<rect width="20" height="20" fill="white"/>
</clipPath>
</defs>
</svg>
