<svg width="60" height="60" viewBox="0 0 60 60" fill="none" xmlns="http://www.w3.org/2000/svg">
<path fill-rule="evenodd" clip-rule="evenodd" d="M37.7906 19.98L34.9669 19.9819C32.7525 19.9819 32.3231 21.0338 32.3231 22.5769V25.9819H37.605L36.9169 31.3162H32.3231V45H26.8162V31.3162H22.2113V25.9819H26.8162V22.05C26.8162 17.4844 29.6044 15 33.675 15C35.625 15 37.3013 15.1444 37.7906 15.21V19.98ZM30 0C13.4325 0 0 13.4306 0 30C0 46.5675 13.4325 60 30 60C46.5694 60 60 46.5675 60 30C60 13.4306 46.5694 0 30 0Z" fill="#BBBBBB"/>
</svg>
