<svg width="60" height="60" viewBox="0 0 60 60" fill="none" xmlns="http://www.w3.org/2000/svg">
<path d="M30 60C46.5685 60 60 46.5685 60 30C60 13.4315 46.5685 0 30 0C13.4315 0 0 13.4315 0 30C0 46.5685 13.4315 60 30 60Z" fill="#BBBBBB"/>
<path d="M36.3733 13.3335H23.64C17.96 13.3335 13.3467 17.9468 13.3467 23.6268V36.3602C13.3467 42.0402 17.96 46.6535 23.64 46.6535H36.3733C42.0533 46.6535 46.6667 42.0402 46.6667 36.3602V23.6268C46.6667 17.9468 42.0533 13.3335 36.3733 13.3335ZM42.9467 36.3735C42.9467 40.0002 40 42.9602 36.36 42.9602H23.6267C20 42.9602 17.04 40.0135 17.04 36.3735V23.6402C17.04 20.0135 19.9867 17.0535 23.6267 17.0535H36.36C39.9867 17.0535 42.9467 20.0002 42.9467 23.6402V36.3735Z" fill="white"/>
<path d="M30 21.48C25.3066 21.48 21.48 25.3066 21.48 30C21.48 34.6933 25.3066 38.52 30 38.52C34.6933 38.52 38.52 34.6933 38.52 30C38.52 25.3066 34.6933 21.48 30 21.48ZM30 35.1733C27.1466 35.1733 24.8266 32.8533 24.8266 30C24.8266 27.1466 27.1466 24.8266 30 24.8266C32.8533 24.8266 35.1733 27.1466 35.1733 30C35.1733 32.8533 32.8533 35.1733 30 35.1733Z" fill="white"/>
<path d="M39.1689 22.4144C39.9539 22.2872 40.4871 21.5477 40.3598 20.7627C40.2326 19.9778 39.4931 19.4446 38.7081 19.5718C37.9232 19.6991 37.39 20.4386 37.5173 21.2235C37.6445 22.0085 38.384 22.5417 39.1689 22.4144Z" fill="white"/>
</svg>
