<svg width="60" height="60" viewBox="0 0 60 60" fill="none" xmlns="http://www.w3.org/2000/svg">
<path d="M30 60C46.5685 60 60 46.5685 60 30C60 13.4315 46.5685 0 30 0C13.4315 0 0 13.4315 0 30C0 46.5685 13.4315 60 30 60Z" fill="#BBBBBB"/>
<path d="M44.6133 21.7735C44.5866 21.7735 41.64 21.7202 39.1333 19.8802C36.9466 18.2802 36.1866 14.8002 36.0666 13.5068V13.3335H30.7333V36.3202C30.7333 39.0802 28.48 41.3335 25.72 41.3335C22.96 41.3335 20.7066 39.0802 20.7066 36.3202C20.7066 33.5602 22.96 31.3068 25.72 31.3068H27.4V25.9735H25.72C20.0133 25.9735 15.3733 30.6135 15.3733 36.3202C15.3733 42.0268 20.0133 46.6668 25.72 46.6668C31.4266 46.6668 36.0666 42.0268 36.0666 36.3202V24.2268C39.9333 27.0135 44.12 27.0935 44.6 27.0935V21.7602H44.6133V21.7735Z" fill="white"/>
</svg>
