<svg width="60" height="60" viewBox="0 0 60 60" fill="none" xmlns="http://www.w3.org/2000/svg">
<path d="M30 60C46.5685 60 60 46.5685 60 30C60 13.4315 46.5685 0 30 0C13.4315 0 0 13.4315 0 30C0 46.5685 13.4315 60 30 60Z" fill="#BBBBBB"/>
<path fill-rule="evenodd" clip-rule="evenodd" d="M28.8668 43.1579H31.2214C31.2214 43.1579 31.9326 43.0799 32.2958 42.6884C32.63 42.329 32.6193 41.6541 32.6193 41.6541C32.6193 41.6541 32.5733 38.4947 34.0397 38.0294C35.4852 37.5711 37.3414 41.083 39.3088 42.4333C40.7966 43.4553 41.9271 43.2312 41.9271 43.2312L47.1877 43.1579C47.1877 43.1579 49.9397 42.9884 48.6348 40.8247C48.5279 40.6477 47.8749 39.2241 44.7235 36.2989C41.425 33.2373 41.8667 33.7325 45.8401 28.4365C48.26 25.2113 49.2274 23.2422 48.9252 22.3989C48.637 21.5957 46.8572 21.808 46.8572 21.808L40.934 21.8449C40.934 21.8449 40.495 21.785 40.1693 21.9796C39.8511 22.1705 39.6463 22.6155 39.6463 22.6155C39.6463 22.6155 38.7088 25.1113 37.4585 27.2338C34.821 31.7126 33.7664 31.949 33.3354 31.6709C32.3327 31.0227 32.5829 29.0671 32.5829 27.6777C32.5829 23.3374 33.2412 21.5277 31.3011 21.0593C30.6572 20.9037 30.1834 20.801 28.5368 20.7844C26.4234 20.7625 24.6345 20.7908 23.6217 21.2871C22.9478 21.6171 22.428 22.3524 22.7446 22.3946C23.1361 22.447 24.0227 22.6337 24.4928 23.2738C25.0998 24.0995 25.0784 25.9541 25.0784 25.9541C25.0784 25.9541 25.4271 31.0634 24.2639 31.6982C23.4655 32.1335 22.3703 31.2447 20.0188 27.1814C18.814 25.1001 17.9043 22.7994 17.9043 22.7994C17.9043 22.7994 17.7289 22.3695 17.4161 22.1395C17.0364 21.8609 16.5059 21.7721 16.5059 21.7721L10.8773 21.809C10.8773 21.809 10.0324 21.8326 9.72222 22.2C9.44628 22.5267 9.7003 23.2027 9.7003 23.2027C9.7003 23.2027 14.1069 33.5121 19.0964 38.7075C23.6714 43.4708 28.8668 43.1579 28.8668 43.1579Z" fill="white"/>
</svg>
